<svg width="470" height="469" viewBox="0 0 470 469" fill="none" xmlns="http://www.w3.org/2000/svg">
<g opacity="0.1">
<path opacity="0.1" d="M174.279 319.698C174.305 320.314 174.351 320.917 174.416 321.507C179.514 319.476 184.517 317.292 189.427 314.955C192.047 314.607 194.482 313.416 196.365 311.561C197.8 310.84 199.228 310.087 200.643 309.333C200.323 308.656 199.96 307.999 199.556 307.368C196.798 303.011 192.604 300.285 187.985 300.436C183.366 300.587 179.37 303.581 176.9 308.095C175.005 311.659 174.1 315.666 174.279 319.698Z" fill="#3F3D56"/>
<path opacity="0.1" d="M173.525 296.787C173.624 300.802 174.789 304.718 176.9 308.135C179.665 312.479 183.858 315.204 188.477 315.054C188.798 315.054 189.132 315.008 189.427 314.982C192.047 314.634 194.482 313.443 196.365 311.588C197.643 310.372 198.72 308.961 199.556 307.408C201.404 303.841 202.306 299.86 202.176 295.845C202.045 291.829 200.886 287.915 198.809 284.476C196.044 280.119 191.851 277.394 187.232 277.545C182.613 277.695 178.623 280.689 176.153 285.204C174.259 288.761 173.352 292.761 173.525 296.787Z" fill="#3F3D56"/>
<path opacity="0.1" d="M187.721 292.143C195.63 291.883 201.767 283.279 201.427 272.925C201.087 262.571 194.4 254.388 186.49 254.647C178.581 254.907 172.445 263.511 172.784 273.865C173.124 284.219 179.812 292.403 187.721 292.143Z" fill="#3F3D56"/>
<path opacity="0.1" d="M186.97 269.236C194.879 268.976 201.015 260.372 200.676 250.018C200.336 239.664 193.648 231.481 185.739 231.74C177.83 232 171.693 240.604 172.033 250.958C172.373 261.312 179.061 269.496 186.97 269.236Z" fill="#3F3D56"/>
<path opacity="0.1" d="M186.219 246.322C194.128 246.062 200.264 237.458 199.924 227.104C199.585 216.75 192.897 208.567 184.988 208.826C177.079 209.086 170.942 217.69 171.282 228.044C171.622 238.398 178.309 246.582 186.219 246.322Z" fill="#3F3D56"/>
<path opacity="0.1" d="M112.947 115.465C113.426 130.854 119.089 145.63 129.019 157.397C121.394 167.775 116.844 180.09 115.889 192.933C114.934 205.776 117.611 218.629 123.616 230.021C129.621 241.414 138.711 250.887 149.846 257.358C160.98 263.828 173.711 267.035 186.583 266.611C199.454 266.187 211.947 262.149 222.632 254.96C233.317 247.771 241.763 237.721 247.005 225.957C252.247 214.194 254.074 201.193 252.275 188.441C250.477 175.689 245.127 163.7 236.836 153.845C245.648 141.882 112.698 107.766 112.947 115.465Z" fill="black"/>
</g>
<g opacity="0.1">
<path opacity="0.1" d="M24.032 440.39C24.032 440.822 23.9861 441.255 23.9337 441.7C20.3084 440.259 16.7463 438.715 13.2477 437.068C11.3835 436.825 9.64944 435.981 8.3076 434.664C7.28552 434.144 6.26997 433.615 5.26099 433.078C5.48868 432.599 5.74693 432.135 6.03412 431.689C7.99967 428.584 10.9742 426.644 14.2632 426.749C17.5522 426.854 20.3957 428.977 22.1254 432.187C23.4797 434.703 24.1378 437.535 24.032 440.39Z" fill="#3F3D56"/>
<path opacity="0.1" d="M24.5429 424.082C24.4783 426.939 23.6553 429.727 22.158 432.161C20.1924 435.253 17.2114 437.199 13.9289 437.094L13.2737 437.042C11.4096 436.798 9.67546 435.954 8.33362 434.637C7.42224 433.773 6.65474 432.769 6.06013 431.663C4.74602 429.127 4.10308 426.297 4.19254 423.443C4.28199 420.588 5.10087 417.804 6.57117 415.355C8.53672 412.25 11.5178 410.31 14.8003 410.415C18.0827 410.52 20.9328 412.643 22.6952 415.853C24.0336 418.383 24.6715 421.224 24.5429 424.082Z" fill="#3F3D56"/>
<path opacity="0.1" d="M25.0724 407.805C25.3052 400.438 20.9319 394.321 15.3044 394.144C9.67683 393.966 4.92608 399.794 4.69327 407.161C4.46046 414.528 8.83375 420.645 14.4613 420.822C20.0888 421 24.8396 415.172 25.0724 407.805Z" fill="#3F3D56"/>
<path opacity="0.1" d="M25.5813 391.5C25.8141 384.133 21.4408 378.016 15.8133 377.838C10.1857 377.661 5.43499 383.489 5.20218 390.856C4.96937 398.223 9.34266 404.339 14.9702 404.517C20.5977 404.695 25.3485 398.867 25.5813 391.5Z" fill="#3F3D56"/>
<path opacity="0.1" d="M26.0973 375.189C26.3301 367.822 21.9568 361.705 16.3293 361.527C10.7017 361.35 5.95098 367.178 5.71817 374.545C5.48536 381.912 9.85865 388.028 15.4862 388.206C21.1137 388.384 25.8645 382.556 26.0973 375.189Z" fill="#3F3D56"/>
</g>
<g opacity="0.1">
<path opacity="0.1" d="M365.232 355.183C365.232 355.622 365.186 356.048 365.14 356.493C361.51 355.052 357.948 353.508 354.454 351.861C352.588 351.617 350.852 350.773 349.507 349.457C348.492 348.939 347.47 348.408 346.461 347.871C346.691 347.393 346.949 346.93 347.234 346.482C349.199 343.377 352.174 341.437 355.463 341.542C358.752 341.647 361.595 343.77 363.325 346.98C364.679 349.496 365.338 352.328 365.232 355.183Z" fill="#3F3D56"/>
<path opacity="0.1" d="M365.782 338.875C365.715 341.732 364.89 344.521 363.39 346.954C361.425 350.046 358.45 351.992 355.161 351.887L354.506 351.835C352.64 351.59 350.905 350.746 349.56 349.43C348.651 348.564 347.884 347.56 347.286 346.456C345.972 343.92 345.329 341.09 345.418 338.235C345.508 335.381 346.327 332.597 347.797 330.148C349.763 327.049 352.744 325.103 356.026 325.208C359.309 325.313 362.165 327.436 363.921 330.646C365.264 333.174 365.907 336.015 365.782 338.875Z" fill="#3F3D56"/>
<path opacity="0.1" d="M366.294 322.593C366.527 315.226 362.153 309.109 356.526 308.931C350.898 308.753 346.147 314.582 345.915 321.949C345.682 329.316 350.055 335.432 355.683 335.61C361.31 335.788 366.061 329.96 366.294 322.593Z" fill="#3F3D56"/>
<path opacity="0.1" d="M366.81 306.288C367.043 298.921 362.669 292.805 357.042 292.627C351.414 292.449 346.664 298.277 346.431 305.644C346.198 313.011 350.571 319.128 356.199 319.306C361.826 319.483 366.577 313.655 366.81 306.288Z" fill="#3F3D56"/>
<path opacity="0.1" d="M367.325 289.984C367.558 282.617 363.185 276.5 357.557 276.323C351.93 276.145 347.179 281.973 346.946 289.34C346.713 296.707 351.087 302.824 356.714 303.001C362.342 303.179 367.093 297.351 367.325 289.984Z" fill="#3F3D56"/>
<path opacity="0.1" d="M408.697 209.785C408.368 220.735 404.351 231.254 397.296 239.635C402.732 247.013 405.981 255.772 406.673 264.909C407.365 274.047 405.472 283.195 401.21 291.308C396.948 299.42 390.489 306.17 382.572 310.785C374.655 315.399 365.599 317.693 356.44 317.404C347.28 317.114 338.387 314.254 330.777 309.148C323.167 304.043 317.147 296.899 313.406 288.533C309.665 280.168 308.353 270.919 309.621 261.843C310.888 252.767 314.684 244.231 320.574 237.211C314.285 228.7 408.867 204.294 408.697 209.785Z" fill="black"/>
</g>
<path d="M37.3454 298.641V446.712C26.5305 446.184 15.7222 445.548 4.92043 444.806L0 444.458V298.641C0 297.882 0.149474 297.13 0.439881 296.429C0.730289 295.728 1.15594 295.091 1.69254 294.555C2.22915 294.018 2.86619 293.592 3.5673 293.302C4.2684 293.012 5.01985 292.862 5.77872 292.862H31.5667C32.3256 292.862 33.077 293.012 33.7781 293.302C34.4792 293.592 35.1163 294.018 35.6529 294.555C36.1895 295.091 36.6151 295.728 36.9056 296.429C37.196 297.13 37.3454 297.882 37.3454 298.641Z" fill="#3F3D56"/>
<path d="M85.1738 448.553V199.708C85.1738 198.175 85.7827 196.705 86.8664 195.622C87.9501 194.538 89.4199 193.929 90.9525 193.929H116.741C117.499 193.929 118.251 194.079 118.952 194.369C119.653 194.659 120.29 195.085 120.827 195.622C121.363 196.158 121.789 196.795 122.079 197.496C122.37 198.198 122.519 198.949 122.519 199.708V449.202L85.1738 448.553Z" fill="#3F3D56"/>
<path d="M169.72 449.321V251.455C169.72 249.923 170.329 248.453 171.413 247.369C172.497 246.286 173.966 245.677 175.499 245.677H201.287C202.82 245.677 204.29 246.286 205.373 247.369C206.457 248.453 207.066 249.923 207.066 251.455V448.895L169.72 449.321Z" fill="#3F3D56"/>
<path d="M292.867 104.707V446.942C280.418 447.295 267.97 447.627 255.521 447.938V104.707C255.521 103.174 256.13 101.704 257.214 100.621C258.298 99.5368 259.767 98.928 261.3 98.928H287.088C288.621 98.928 290.091 99.5368 291.174 100.621C292.258 101.704 292.867 103.174 292.867 104.707Z" fill="#3F3D56"/>
<path d="M378.041 173.5V444.091C365.592 444.694 353.144 445.12 340.695 445.5V173.5C340.695 171.968 341.304 170.498 342.388 169.414C343.471 168.331 344.941 167.722 346.474 167.722H372.262C373.794 167.722 375.264 168.331 376.348 169.414C377.432 170.498 378.041 171.968 378.041 173.5Z" fill="#3F3D56"/>
<path d="M19.0002 212.288L104.174 117.286L189.348 165.115L274.522 18.3535L359.696 88.4581" stroke="#3F3D56" stroke-width="7" stroke-miterlimit="10" stroke-linecap="round"/>
<path d="M18.6726 230.633C28.8044 230.633 37.0178 222.419 37.0178 212.288C37.0178 202.156 28.8044 193.943 18.6726 193.943C8.54091 193.943 0.327515 202.156 0.327515 212.288C0.327515 222.419 8.54091 230.633 18.6726 230.633Z" fill="#D65A5A"/>
<path d="M103.846 135.632C113.978 135.632 122.191 127.419 122.191 117.287C122.191 107.155 113.978 98.9417 103.846 98.9417C93.7146 98.9417 85.5012 107.155 85.5012 117.287C85.5012 127.419 93.7146 135.632 103.846 135.632Z" fill="#D65A5A"/>
<path d="M189.02 183.459C199.152 183.459 207.365 175.246 207.365 165.114C207.365 154.982 199.152 146.769 189.02 146.769C178.888 146.769 170.675 154.982 170.675 165.114C170.675 175.246 178.888 183.459 189.02 183.459Z" fill="#D65A5A"/>
<path d="M274.194 36.6986C284.326 36.6986 292.539 28.4852 292.539 18.3534C292.539 8.2217 284.326 0.00830078 274.194 0.00830078C264.062 0.00830078 255.849 8.2217 255.849 18.3534C255.849 28.4852 264.062 36.6986 274.194 36.6986Z" fill="#D65A5A"/>
<path d="M437.99 192.632C448.122 192.632 456.335 184.419 456.335 174.287C456.335 164.155 448.122 155.942 437.99 155.942C427.858 155.942 419.645 164.155 419.645 174.287C419.645 184.419 427.858 192.632 437.99 192.632Z" fill="#D65A5A"/>
<path d="M366.968 185.537C367.09 186.685 367.545 187.771 368.278 188.662C369.228 189.737 370.65 190.228 371.928 190.87C375.234 192.563 377.76 195.466 378.977 198.975C381.159 205.343 381.441 212.079 384.219 218.224C386.997 224.37 390.26 230.273 392.658 236.569C394.02 240.14 395.108 243.855 397.106 247.105C398.074 248.703 399.308 250.123 400.756 251.304C400.605 253.611 400.546 255.891 400.559 258.197C401.002 258.188 401.44 258.292 401.831 258.498C402.223 258.704 402.556 259.006 402.8 259.376C403.285 260.123 403.619 260.958 403.783 261.833C404.68 265.548 403.573 269.505 404.379 273.24C406.593 283.628 405.913 294.425 402.413 304.453C401.516 306.995 400.389 315.407 401.345 317.93C404.91 317.57 408.068 319.758 411.402 321.206C411.672 323.182 411.511 325.194 410.931 327.102C409.732 330.555 409.738 334.31 409.758 337.959L409.922 364.992C409.922 368.418 409.968 371.891 410.826 375.213C411.802 378.954 413.853 382.767 413.787 386.632C413.61 394.953 417.542 402.881 417.227 411.136C417.168 412.722 416.952 414.294 416.801 415.867C416.414 420.056 416.52 424.275 417.116 428.44C418.308 436.734 421.46 444.891 420.673 453.232C420.621 453.795 420.431 454.542 419.9 454.758C420.555 455.499 421.25 456.233 421.957 456.934C421.814 457.172 421.62 457.376 421.387 457.53C420.613 457.934 419.758 458.158 418.885 458.185C417.86 458.212 416.866 458.535 416.022 459.115C415.408 459.704 414.991 460.469 414.829 461.304C414.596 462.129 414.546 462.994 414.681 463.841C414.817 464.687 415.136 465.494 415.615 466.204C416.2 466.941 416.965 467.514 417.836 467.869C420.863 469.179 424.336 468.229 427.494 467.272L439.864 463.525C440.618 463.368 441.314 463.005 441.875 462.476C442.132 462.173 442.301 461.807 442.366 461.415C445.099 462.07 448.099 461.264 450.884 460.432L463.254 456.678C464.009 456.524 464.706 456.161 465.265 455.63C465.488 455.359 465.648 455.043 465.735 454.703C465.823 454.363 465.834 454.009 465.77 453.664C465.861 453.625 465.953 453.599 466.045 453.553C466.988 453.127 468.01 452.295 467.781 451.292C467.617 450.637 466.962 450.257 466.68 449.654C466.548 449.263 466.52 448.843 466.601 448.437C466.681 448.031 466.867 447.653 467.139 447.342C467.624 446.687 468.279 446.143 468.724 445.455C470.153 443.266 469.183 440.39 468.646 437.828C467.486 432.358 468.561 426.644 467.827 421.102C467.578 419.234 467.126 417.4 466.765 415.546C466.002 411.163 465.496 406.74 465.252 402.298C464.78 395.956 463.018 389.705 464.027 383.415C464.517 379.724 464.725 376.001 464.649 372.277C464.721 369.906 464.618 367.532 464.341 365.175C464.086 363.419 463.634 361.696 463.437 359.934C463.278 357.953 463.243 355.964 463.332 353.978C463.423 349.552 463.014 345.13 462.114 340.796C460.803 334.84 458.34 329.14 457.292 323.171C457.645 323.25 457.999 323.329 458.34 323.42C458.379 318.834 454.363 308.862 452.876 304.512C452.658 303.979 452.525 303.415 452.482 302.841C452.572 302.084 452.71 301.333 452.895 300.594C453.085 299.008 452.24 297.501 452.011 295.916C451.921 294.8 452.003 293.678 452.253 292.587C453.308 286.724 454.618 280.906 455.929 275.094C456.5 272.989 456.697 270.8 456.512 268.627C456.36 267.476 456.456 266.305 456.795 265.194C457.134 264.083 457.708 263.057 458.477 262.187C459.053 261.656 459.544 261.039 459.932 260.359C460.15 259.775 460.248 259.154 460.22 258.531C460.194 255.836 459.797 253.157 459.041 250.571C460.194 248.481 460.62 245.912 460.954 243.488C461.688 238.135 462.422 232.756 462.395 227.351C462.454 224.467 462.056 221.593 461.216 218.833C460.603 217.129 459.853 215.477 458.975 213.893C455.529 207.256 452.233 200.272 447.883 194.192C446.573 192.344 447.398 189.796 447.49 187.516C447.588 184.764 446.501 182.124 445.433 179.595C444.888 178.038 444.052 176.599 442.969 175.356C442.603 174.953 442.159 174.628 441.663 174.403C441.167 174.178 440.631 174.056 440.086 174.045C439.469 174.121 438.876 174.327 438.346 174.652C437.816 174.976 437.361 175.411 437.014 175.926C436.221 177.005 435.651 178.23 435.335 179.532C435.019 180.833 434.963 182.183 435.173 183.506C435.608 186.153 436.761 188.63 438.507 190.667C439.351 191.692 440.317 192.61 441.384 193.399C442.467 196.841 443.559 200.281 444.66 203.718C446.389 209.189 448.119 214.686 450.556 219.862C451.27 221.363 452.057 222.889 452.142 224.547C452.233 226.335 451.487 228.039 450.89 229.723C449.634 233.232 448.923 236.913 448.781 240.638C448.589 240.723 448.405 240.824 448.23 240.939C446.167 242.289 445.518 245.231 443.369 246.436C442.117 247.137 440.597 247.092 439.195 247.413C439.071 247.413 438.946 247.478 438.815 247.517C438.763 247.255 438.711 247 438.678 246.731C438.658 246.564 438.658 246.394 438.678 246.227C442.018 244.39 444.825 241.717 446.822 238.469C447.242 237.868 447.567 237.205 447.785 236.504C447.962 235.664 447.995 234.8 447.883 233.949C447.774 231.108 447.367 228.286 446.671 225.529C445.972 222.76 444.443 220.27 442.288 218.395C441.213 217.53 439.975 216.881 438.907 216.01C436.824 214.326 435.395 211.836 433.01 210.585C431.493 209.846 429.761 209.672 428.127 210.094C426.493 210.517 425.062 211.509 424.093 212.891C423.776 213.53 423.33 214.097 422.783 214.555C422.366 214.753 421.959 214.971 421.564 215.21C420.844 215.787 420.804 216.894 421.04 217.792C421.487 219.636 421.738 221.523 421.787 223.42C419.673 225.901 418.508 229.053 418.501 232.313C418.494 235.573 419.644 238.73 421.748 241.221C421.748 242.44 421.748 243.658 421.702 244.877C421.702 245.106 421.702 245.342 421.656 245.572C420.901 245.308 420.224 244.857 419.691 244.261C418.957 243.344 418.826 241.994 417.928 241.241C417.283 240.815 416.547 240.546 415.779 240.455C413.871 240.021 412.082 239.173 410.538 237.971C409.326 237.034 408.068 235.835 406.652 235.56C404.21 230.98 401.36 226.629 398.135 222.561C397.317 221.599 396.573 220.576 395.907 219.502C394.499 217.045 394.079 214.155 393.188 211.463C390.699 203.915 384.488 197.861 382.974 190.051C382.424 187.221 380.629 184.757 379.397 182.15C378.565 180.387 377.647 178.527 375.983 177.518C373.841 176.207 370.879 176.81 369.097 178.572C368.235 179.494 367.594 180.601 367.225 181.808C366.856 183.015 366.768 184.291 366.968 185.537ZM444.758 450.683C443.984 451.087 443.128 451.311 442.255 451.338C441.815 451.384 441.377 451.454 440.945 451.548C440.781 450.172 440.689 448.777 440.584 447.42C440.237 442.972 439.543 438.556 438.855 434.146C438.134 429.56 437.793 424.541 436.234 420.138C433.725 412.971 431.182 405.587 431.504 397.993C431.576 396.27 431.792 394.56 431.884 392.844C432.093 388.591 431.497 384.248 432.539 380.113C433.004 378.233 433.797 376.438 434.098 374.525C434.29 372.797 434.312 371.055 434.164 369.322C433.877 363.31 434.377 357.286 435.651 351.403C436.869 352.995 437.269 355.053 437.616 357.025L440.073 370.351C441.534 378.259 442.825 386.646 446.697 393.682C446.153 396.218 445.616 398.924 446.514 401.348C446.9 402.396 447.536 403.313 447.929 404.375C448.584 406.137 448.492 408.077 448.689 409.944C449.115 413.875 450.74 417.741 449.547 421.534C448.321 425.446 447.523 429.479 447.169 433.563C447.104 434.699 446.973 435.83 446.776 436.95C446.566 437.959 446.225 438.916 446.035 439.951C445.773 441.404 445.838 442.897 446.225 444.321C446.52 445.111 446.701 445.938 446.763 446.778C446.763 447.617 445.734 448.22 444.909 448.351C445.151 448.665 445.413 448.967 445.682 449.261C445.524 449.818 445.202 450.313 444.758 450.683Z" fill="url(#paint0_linear)"/>
<path d="M418.885 458.243C417.86 458.269 416.866 458.593 416.021 459.173C415.405 459.755 414.988 460.516 414.829 461.348C414.597 462.167 414.547 463.026 414.682 463.866C414.818 464.706 415.137 465.506 415.615 466.21C416.201 466.944 416.966 467.515 417.836 467.867C420.863 469.178 424.336 468.221 427.494 467.271L439.864 463.55C440.618 463.395 441.314 463.035 441.875 462.508C442.216 462.049 442.404 461.495 442.413 460.924C442.422 460.353 442.253 459.793 441.927 459.324C441.263 458.399 440.356 457.676 439.307 457.234C435.461 455.36 431.123 454.934 426.898 454.855C425.325 454.855 423.772 454.475 422.704 455.687C422.141 456.343 422.246 457.044 421.394 457.6C420.615 457.998 419.758 458.217 418.885 458.243Z" fill="#3F3D56"/>
<path d="M442.255 451.443C441.231 451.473 440.238 451.796 439.392 452.373C438.777 452.956 438.361 453.717 438.2 454.548C437.967 455.368 437.918 456.229 438.053 457.069C438.189 457.91 438.507 458.711 438.986 459.416C439.573 460.147 440.338 460.715 441.207 461.067C444.24 462.378 447.706 461.428 450.864 460.478L463.234 456.75C463.988 456.596 464.685 456.235 465.246 455.708C465.586 455.25 465.773 454.698 465.783 454.128C465.792 453.558 465.623 452.999 465.298 452.53C464.633 451.606 463.726 450.883 462.677 450.44C458.825 448.567 454.487 448.134 450.261 448.056C448.689 448.056 447.143 447.682 446.068 448.894C445.505 449.549 445.61 450.244 444.758 450.801C443.984 451.204 443.128 451.423 442.255 451.443Z" fill="#3F3D56"/>
<path d="M431.504 317.196C438.793 316.463 446.126 316.257 453.446 316.58C453.929 316.575 454.409 316.65 454.867 316.802C456.479 317.458 456.728 319.567 456.879 321.291C457.534 328.288 460.587 334.807 462.12 341.66C463.021 345.968 463.429 350.364 463.339 354.764C463.25 356.73 463.285 358.699 463.444 360.66C463.64 362.41 464.099 364.126 464.348 365.869C464.624 368.21 464.727 370.569 464.656 372.926C464.731 376.62 464.523 380.315 464.033 383.978C463.024 390.222 464.787 396.427 465.259 402.743C465.494 407.16 465.99 411.56 466.746 415.919C467.106 417.76 467.558 419.581 467.807 421.435C468.541 426.945 467.467 432.619 468.626 438.057C469.163 440.599 470.133 443.456 468.705 445.631C468.259 446.286 467.604 446.843 467.119 447.505C466.847 447.814 466.662 448.189 466.581 448.593C466.5 448.997 466.528 449.415 466.661 449.805C466.942 450.401 467.598 450.794 467.761 451.43C468.017 452.432 466.969 453.251 466.025 453.677C458.916 456.887 449.75 454.627 444.954 448.475C445.78 448.344 446.789 447.747 446.809 446.909C446.746 446.075 446.565 445.254 446.271 444.471C445.886 443.058 445.821 441.576 446.081 440.134C446.271 439.125 446.612 438.169 446.822 437.153C447.018 436.039 447.15 434.915 447.215 433.785C447.569 429.727 448.367 425.72 449.593 421.835C450.786 418.068 449.161 414.254 448.735 410.323C448.538 408.463 448.624 406.543 447.975 404.787C447.582 403.752 446.946 402.821 446.56 401.786C445.662 399.369 446.199 396.682 446.743 394.167C442.871 387.176 441.58 378.842 440.119 370.986L437.662 357.751C437.295 355.786 436.896 353.748 435.697 352.163C434.423 358.006 433.923 363.991 434.209 369.964C434.358 371.685 434.336 373.417 434.144 375.133C433.843 377.033 433.05 378.822 432.585 380.683C431.569 384.791 432.165 389.102 431.929 393.328C431.838 395.038 431.622 396.735 431.549 398.445C431.228 405.993 433.77 413.331 436.28 420.452C437.82 424.823 438.16 429.789 438.901 434.362C439.556 438.745 440.283 443.128 440.63 447.551C440.951 451.613 441.095 456.009 443.624 459.2C441.312 460.7 438.927 462.227 436.221 462.745C433.068 463.238 429.841 462.612 427.101 460.976C424.376 459.346 421.941 457.276 419.894 454.85C420.424 454.666 420.614 453.893 420.667 453.336C421.453 445.041 418.302 436.957 417.109 428.701C416.513 424.566 416.408 420.374 416.795 416.213C416.945 414.648 417.162 413.082 417.221 411.509C417.535 403.313 413.584 395.418 413.728 387.215C413.794 383.369 411.763 379.582 410.767 375.867C409.909 372.591 409.883 369.119 409.863 365.712L409.699 338.849C409.699 335.22 409.699 331.498 410.872 328.072C412.313 323.944 410.662 319.207 410.413 314.844C417.221 317.001 424.387 317.8 431.504 317.196Z" fill="#696791"/>
<path d="M408.146 240.015C405.392 234.385 402.029 229.074 398.115 224.179C397.298 223.223 396.553 222.207 395.888 221.139C394.479 218.695 394.06 215.825 393.169 213.152C390.679 205.657 384.468 199.636 382.955 191.885C382.404 189.068 380.609 186.644 379.377 184.023C378.545 182.273 377.628 180.426 375.964 179.437C373.821 178.126 370.86 178.729 369.078 180.485C368.22 181.399 367.584 182.497 367.218 183.695C366.853 184.894 366.767 186.16 366.968 187.397C367.091 188.538 367.546 189.618 368.278 190.503C369.228 191.571 370.65 192.055 371.928 192.697C375.229 194.371 377.755 197.256 378.978 200.75C381.159 207.072 381.441 213.768 384.219 219.874C386.997 225.981 390.26 231.838 392.658 238.082C394.021 241.627 395.108 245.289 397.106 248.565C399.105 251.841 402.223 254.586 405.991 255.077C405.965 252.703 406.326 250.339 407.059 248.08C407.878 245.499 409.332 242.459 408.146 240.015Z" fill="#A0616A"/>
<path d="M448.709 244.916C448.54 240.283 449.263 235.661 450.838 231.301C451.441 229.631 452.148 227.934 452.089 226.158C452.004 224.507 451.218 222.994 450.504 221.5C448.04 216.357 446.311 210.905 444.607 205.467L441.331 195.214C440.263 194.431 439.297 193.517 438.455 192.495C436.709 190.476 435.555 188.013 435.12 185.379C434.911 184.066 434.966 182.725 435.282 181.433C435.599 180.142 436.169 178.926 436.961 177.858C437.31 177.345 437.765 176.912 438.295 176.589C438.825 176.266 439.418 176.06 440.034 175.984C440.578 175.996 441.114 176.118 441.61 176.344C442.105 176.569 442.55 176.892 442.917 177.294C443.998 178.527 444.834 179.955 445.38 181.501C446.448 184.017 447.536 186.637 447.438 189.363C447.346 191.63 446.501 194.159 447.831 196C452.181 202.041 455.477 208.979 458.923 215.577C459.802 217.149 460.551 218.79 461.164 220.484C462.005 223.229 462.404 226.091 462.343 228.962C462.343 234.328 461.636 239.674 460.902 244.995C460.437 248.329 459.827 251.959 457.305 254.167C454.684 250.813 452.05 247.537 448.709 244.916Z" fill="#A0616A"/>
<path d="M432.041 247.471C439.549 247.471 445.636 241.384 445.636 233.876C445.636 226.367 439.549 220.281 432.041 220.281C424.532 220.281 418.446 226.367 418.446 233.876C418.446 241.384 424.532 247.471 432.041 247.471Z" fill="#A0616A"/>
<path d="M438.625 248.191C438.953 250.648 440.27 252.849 441.554 254.972C442.327 256.282 443.316 257.678 444.83 257.822C440.891 259.889 436.753 261.553 432.48 262.788C431.027 263.276 429.504 263.522 427.972 263.516C426.674 263.419 425.403 263.093 424.218 262.553C421.627 261.424 419.326 259.722 417.488 257.575C415.651 255.427 414.325 252.891 413.61 250.156C415.303 250.202 416.996 250.072 418.662 249.77C419.613 249.697 420.5 249.26 421.139 248.551C421.518 247.887 421.696 247.127 421.65 246.363C421.715 244.096 421.722 241.823 421.65 239.556C424.99 239.343 428.341 239.756 431.53 240.774C432.84 241.2 434.15 241.711 435.461 242.045C436.286 242.255 438.56 242.045 439.169 242.524C440.172 243.198 438.396 246.52 438.625 248.191Z" fill="#A0616A"/>
<path d="M432.65 256.454C432.799 254.662 433.508 252.964 434.677 251.598C435.846 250.233 437.416 249.27 439.163 248.847C440.565 248.533 442.085 248.572 443.336 247.877C445.485 246.678 446.134 243.756 448.198 242.413C450.261 241.07 453.19 241.817 454.985 243.514C456.781 245.211 457.691 247.628 458.425 249.994C459.521 253.192 460.115 256.54 460.187 259.92C460.215 260.538 460.117 261.155 459.899 261.735C459.511 262.411 459.02 263.023 458.445 263.549C457.676 264.412 457.102 265.431 456.763 266.535C456.424 267.64 456.327 268.805 456.479 269.951C456.665 272.108 456.468 274.282 455.896 276.371C454.586 282.15 453.275 287.922 452.22 293.753C451.973 294.827 451.891 295.931 451.978 297.029C452.181 298.608 453.053 300.102 452.863 301.681C452.677 302.416 452.539 303.162 452.45 303.915C452.493 304.485 452.625 305.044 452.843 305.573C454.33 309.89 458.346 319.784 458.307 324.357C451.329 322.568 441.043 322.169 433.836 322.136C431.854 322.115 429.872 322.203 427.9 322.398C423.163 322.909 418.315 324.291 413.722 323.014C409.457 321.828 405.683 318.427 401.273 318.853C400.317 316.351 401.444 307.997 402.341 305.468C405.841 295.51 406.521 284.778 404.307 274.458C403.501 270.75 404.608 266.812 403.711 263.13C403.547 262.259 403.213 261.428 402.728 260.686C402.484 260.318 402.15 260.017 401.758 259.812C401.367 259.607 400.929 259.504 400.487 259.513C400.406 253.591 400.955 247.676 402.125 241.869C402.558 239.806 403.436 237.368 405.552 237.014C407.426 236.693 408.998 238.279 410.505 239.439C412.05 240.635 413.84 241.476 415.746 241.902C416.514 241.994 417.25 242.263 417.895 242.688C418.793 243.435 418.924 244.778 419.658 245.689C420.968 247.32 423.897 247.183 424.827 249.063C425.031 249.623 425.195 250.197 425.319 250.78C425.759 251.897 426.509 252.866 427.481 253.571C428.94 254.943 430.716 255.933 432.65 256.454Z" fill="#F86D70"/>
<path d="M420.994 219.422C420.759 218.525 420.798 217.457 421.519 216.854C421.879 216.572 422.351 216.467 422.737 216.199C423.282 215.741 423.728 215.177 424.048 214.541C425.025 213.173 426.456 212.195 428.086 211.782C429.716 211.368 431.44 211.545 432.952 212.281C435.317 213.519 436.745 215.996 438.848 217.666C439.916 218.531 441.154 219.173 442.229 220.038C444.381 221.897 445.911 224.371 446.612 227.127C447.308 229.864 447.715 232.666 447.824 235.487C447.936 236.334 447.903 237.194 447.726 238.029C447.508 238.73 447.183 239.393 446.763 239.995C444.601 243.271 441.751 246.245 438.18 247.936C434.609 249.626 430.265 249.901 426.74 248.132C426.386 247.989 426.081 247.745 425.862 247.431C425.662 246.953 425.614 246.425 425.725 245.918C425.916 243.915 425.52 241.901 424.585 240.119C423.93 238.809 422.947 237.682 422.423 236.326C421.935 234.808 421.727 233.214 421.807 231.622C421.748 227.501 422.03 223.393 420.994 219.422Z" fill="#2D293D"/>
<defs>
<linearGradient id="paint0_linear" x1="469.452" y1="321.278" x2="366.883" y2="321.278" gradientUnits="userSpaceOnUse">
<stop stop-color="#808080" stop-opacity="0.25"/>
<stop offset="0.54" stop-color="#808080" stop-opacity="0.12"/>
<stop offset="1" stop-color="#808080" stop-opacity="0.1"/>
</linearGradient>
</defs>
</svg>
