<svg width="20" height="18" viewBox="0 0 20 18" fill="none" xmlns="http://www.w3.org/2000/svg">
<path d="M14.2234 0C12.5166 0 10.8785 0.794551 9.80926 2.05014C8.74005 0.794551 7.10191 0 5.3951 0C2.37384 0 0 2.37384 0 5.3951C0 9.103 3.33515 12.1243 8.38692 16.715L9.80926 18L11.2316 16.7052C16.2834 12.1243 19.6185 9.103 19.6185 5.3951C19.6185 2.37384 17.2447 0 14.2234 0ZM9.90736 15.2534L9.80926 15.3515L9.71117 15.2534C5.04196 11.0256 1.96185 8.22997 1.96185 5.3951C1.96185 3.43324 3.43324 1.96185 5.3951 1.96185C6.90572 1.96185 8.37711 2.93297 8.897 4.27684H9.81417H10.7313C11.2414 2.93297 12.7128 1.96185 14.2234 1.96185C16.1853 1.96185 17.6567 3.43324 17.6567 5.3951C17.6567 8.22997 14.5766 11.0256 9.90736 15.2534Z" fill="#F9F9F9"/>
</svg>
