<svg width="246" height="237" viewBox="0 0 246 237" fill="none" xmlns="http://www.w3.org/2000/svg">
<mask id="mask0" mask-type="alpha" maskUnits="userSpaceOnUse" x="0" y="0" width="246" height="237">
<path fill-rule="evenodd" clip-rule="evenodd" d="M119.15 5.68165C137.417 8.81583 152.47 19.3507 169.695 26.6424C194.909 37.3162 232.026 31.6438 243.347 58.2583C254.326 84.0685 228.457 110.916 216.241 136.067C206.231 156.675 194.421 174.803 178.904 190.931C160.826 209.722 144.206 236.201 119.15 236.983C94.0353 237.767 77.0626 210.871 56.8366 194.741C36.7867 178.752 8.69513 169.095 1.6171 143.254C-5.43959 117.491 12.3008 92.498 22.064 67.7913C30.8388 45.5858 36.2328 19.3305 55.4439 7.04038C74.186 -4.94971 97.646 1.99228 119.15 5.68165Z" fill="#C4C4C4"/>
</mask>
<g mask="url(#mask0)">
<path fill-rule="evenodd" clip-rule="evenodd" d="M119.15 5.68165C137.417 8.81583 152.47 19.3507 169.695 26.6424C194.909 37.3162 232.026 31.6438 243.347 58.2583C254.326 84.0685 228.457 110.916 216.241 136.067C206.231 156.675 194.421 174.803 178.904 190.931C160.826 209.722 144.206 236.201 119.15 236.983C94.0353 237.767 77.0626 210.871 56.8366 194.741C36.7867 178.752 8.69513 169.095 1.6171 143.254C-5.43959 117.491 12.3008 92.498 22.064 67.7913C30.8388 45.5858 36.2328 19.3305 55.4439 7.04038C74.186 -4.94971 97.646 1.99228 119.15 5.68165Z" fill="#D65A5A"/>
<path d="M21.8457 165.86C23.1047 165.86 24.1252 164.839 24.1252 163.58C24.1252 162.321 23.1047 161.3 21.8457 161.3C20.5867 161.3 19.5662 162.321 19.5662 163.58C19.5662 164.839 20.5867 165.86 21.8457 165.86Z" fill="#D0CDE1"/>
<path d="M16.1466 174.788C18.2449 174.788 19.9459 173.087 19.9459 170.988C19.9459 168.89 18.2449 167.189 16.1466 167.189C14.0484 167.189 12.3474 168.89 12.3474 170.988C12.3474 173.087 14.0484 174.788 16.1466 174.788Z" fill="#D65A5A"/>
<path d="M60.6941 92.8381C64.9126 92.8381 68.3324 89.4183 68.3324 85.1997C68.3324 80.9812 64.9126 77.5614 60.6941 77.5614C56.4756 77.5614 53.0558 80.9812 53.0558 85.1997C53.0558 89.4183 56.4756 92.8381 60.6941 92.8381Z" fill="#2F2E41"/>
<path d="M71.5515 131.469L72.7095 133.785C72.7095 133.785 76.4153 139.807 73.8676 140.502C71.3199 141.197 70.5092 135.986 70.5092 135.986L70.046 133.206L71.5515 131.469Z" fill="#A0616A"/>
<path d="M66.9193 119.657L69.8145 127.3L72.7095 132.627L69.1196 134.943L66.2244 129.848L62.7504 121.857L66.9193 119.657Z" fill="#D0CDE1"/>
<path d="M58.6971 155.441L52.9068 161.579L42.7159 178.834L38.3153 177.444L43.5266 167.137C43.5266 167.137 46.5375 159.262 48.043 158.22C49.5484 157.178 52.0961 150.345 52.0961 150.345L54.8755 148.145L58.6971 155.441Z" fill="#A0616A"/>
<path d="M70.625 158.799L71.0882 160.768C71.0882 160.768 72.5937 166.906 74.9098 169.685L80.4684 179.297L84.6374 177.907L76.4153 158.452L70.625 158.799Z" fill="#A0616A"/>
<path d="M61.9974 94.1219C65.4511 94.1219 68.2509 91.3222 68.2509 87.8685C68.2509 84.4147 65.4511 81.615 61.9974 81.615C58.5437 81.615 55.7439 84.4147 55.7439 87.8685C55.7439 91.3222 58.5437 94.1219 61.9974 94.1219Z" fill="#A0616A"/>
<path d="M57.0758 90.9373L56.2651 97.654L61.4764 100.202C61.4764 100.202 61.4764 94.4115 62.866 92.906L57.0758 90.9373Z" fill="#A0616A"/>
<path d="M40.7473 134.248L40.1683 136.217C40.1683 136.217 36.3467 143.745 39.5892 143.745C42.8318 143.745 43.4108 136.796 43.4108 136.796L43.7582 135.059L40.7473 134.248Z" fill="#A0616A"/>
<path d="M67.3826 126.374L66.5719 132.048L76.4154 152.777L76.9944 158.799L58.5814 161.115L54.5282 149.882L48.0431 158.22L51.7489 149.65C51.7489 149.65 52.9069 143.86 52.5595 142.355C52.2121 140.849 52.7911 133.322 53.8334 131.469C54.8756 129.616 67.3826 126.374 67.3826 126.374Z" fill="#2F2E41"/>
<path d="M43.4108 178.833L37.8521 176.981L36.115 179.76C36.115 179.76 32.7567 180.686 32.8725 183.118C32.9883 185.55 32.2935 189.719 32.2935 189.719L34.7254 189.951L35.6518 185.203L40.3998 190.877C40.3998 190.877 48.8536 191.34 49.201 189.951C49.5485 188.561 43.1792 187.056 43.1792 187.056L42.1369 182.076L43.4108 178.833Z" fill="#2F2E41"/>
<path d="M84.9848 177.212L79.8894 178.833V179.992C79.8894 179.992 78.3839 182.308 78.6155 184.276C78.8471 186.245 79.8894 190.993 79.8894 190.993H82.5529L82.4371 186.592L87.7642 190.993C87.7642 190.993 97.2602 190.298 97.2602 188.793C97.2602 187.287 89.9645 186.245 89.9645 186.245L84.9848 177.212Z" fill="#2F2E41"/>
<path d="M61.8238 98.812C61.8238 98.812 57.0758 94.064 54.8755 95.2221V97.3066C54.8755 97.3066 51.6329 98.812 51.5171 101.128C51.4013 103.444 48.043 124.521 48.043 124.521L40.1682 151.967C40.1682 151.967 42.6001 155.788 51.5171 151.503L57.0758 132.627C57.0758 132.627 51.1697 153.935 54.0649 153.588C56.96 153.241 68.3089 126.837 68.3089 126.837L67.4983 114.33C67.4983 114.33 69.3512 108.887 65.6454 105.181L61.8238 98.812Z" fill="#D0CDE1"/>
<path d="M53.7174 99.5069C53.7174 99.5069 51.7487 100.202 50.3591 103.213C48.9694 106.224 42.0211 127.416 42.0211 127.416L40.1682 134.943L45.3795 136.217L47.9272 128.458L57.4232 110.856C57.4232 110.856 58.9287 101.591 53.7174 99.5069Z" fill="#D0CDE1"/>
<path d="M54.175 82.8797C54.2921 81.4502 54.9765 79.985 56.2422 79.3104C55.6066 78.0338 55.0386 76.5768 55.4576 75.2138C55.6276 74.6849 55.9353 74.2109 56.3493 73.8405C56.7633 73.4701 57.2684 73.2167 57.8128 73.1063C58.4205 73.0227 59.0374 73.0306 59.6427 73.13L62.4963 73.4536C63.422 73.5586 64.3835 73.6758 65.1708 74.1738C65.5807 74.4331 65.9239 74.7849 66.173 75.2011C66.422 75.6172 66.5699 76.086 66.6047 76.5697C66.6395 77.0534 66.5603 77.5385 66.3734 77.986C66.1865 78.4335 65.8971 78.8309 65.5286 79.1462C67.5251 80.7431 68.8593 81.9554 69.7678 84.3451C68.1031 83.005 66.5099 82.5304 64.3759 82.4149C63.04 82.3426 61.7285 82.7941 60.7202 83.6734C59.7119 84.5528 59.0862 85.7906 58.9761 87.124C58.9211 87.7909 58.9947 88.4775 58.8006 89.1179C58.6065 89.7583 58.0218 90.3582 57.3593 90.2647C57.4512 90.2776 58.0169 88.579 57.6186 87.7949L57.6124 87.7823C57.5248 87.6202 57.3803 87.4963 57.2069 87.4343C57.0521 87.375 56.8865 87.3493 56.7211 87.3588C56.5556 87.3684 56.3941 87.4131 56.2473 87.49C56.1004 87.5668 55.9716 87.674 55.8694 87.8044C55.7672 87.9349 55.6939 88.0856 55.6544 88.2465C55.4329 89.0973 55.0784 90.1829 54.7688 89.8948C54.3634 89.5174 54.5339 86.19 54.4245 85.6741C54.2062 84.7597 54.1221 83.8183 54.175 82.8797Z" fill="#2F2E41"/>
<path d="M56.2738 79.2875C56.2738 79.2875 62.5501 79.6968 65.5517 79.151L56.2738 79.2875Z" fill="#D0CDE1"/>
<path d="M56.6295 78.4476C55.9939 77.1711 55.426 75.7141 55.8449 74.351C56.0406 73.7365 56.4234 73.1985 56.9397 72.8121C56.5453 72.9935 56.1928 73.2548 55.9047 73.5795C55.6165 73.9042 55.399 74.2852 55.2659 74.6985C54.8469 76.0615 55.4149 77.5185 56.0505 78.7951C56.5546 78.7198 55.3638 79.1223 56.6295 78.4476Z" fill="#2F2E41"/>
<path opacity="0.2" d="M58.6394 110.913L49.6065 126.895L46.1323 135.58L50.9963 127.242L58.6394 110.913Z" fill="black"/>
<path d="M17.3626 173.268H16.9827V190.934H17.3626V173.268Z" fill="#3F3D56"/>
<path d="M17.2866 173.648C16.4976 173.648 15.7263 173.414 15.0703 172.976C14.4143 172.537 13.903 171.914 13.601 171.185C13.2991 170.456 13.2201 169.654 13.374 168.88C13.5279 168.107 13.9079 167.396 14.4658 166.838C15.0237 166.28 15.7345 165.9 16.5083 165.746C17.2821 165.592 18.0842 165.671 18.8132 165.973C19.5421 166.275 20.1651 166.786 20.6034 167.442C21.0418 168.098 21.2757 168.87 21.2757 169.659C21.2745 170.716 20.8539 171.73 20.106 172.478C19.3582 173.226 18.3442 173.647 17.2866 173.648ZM17.2866 166.049C16.5727 166.049 15.8749 166.261 15.2814 166.658C14.6878 167.054 14.2252 167.618 13.952 168.278C13.6789 168.937 13.6074 169.663 13.7466 170.363C13.8859 171.063 14.2297 171.706 14.7344 172.211C15.2392 172.716 15.8823 173.059 16.5824 173.199C17.2826 173.338 18.0083 173.266 18.6678 172.993C19.3273 172.72 19.891 172.257 20.2876 171.664C20.6841 171.07 20.8958 170.373 20.8958 169.659C20.8947 168.702 20.5141 167.784 19.8375 167.108C19.1609 166.431 18.2435 166.051 17.2866 166.049Z" fill="#3F3D56"/>
<path d="M20.5159 166.809C20.0275 166.809 19.55 166.664 19.1439 166.393C18.7378 166.122 18.4213 165.736 18.2344 165.285C18.0475 164.834 17.9986 164.337 18.0938 163.858C18.1891 163.379 18.4243 162.939 18.7697 162.594C19.1151 162.248 19.5551 162.013 20.0341 161.918C20.5131 161.822 21.0097 161.871 21.4609 162.058C21.9122 162.245 22.2978 162.562 22.5692 162.968C22.8406 163.374 22.9854 163.851 22.9854 164.34C22.9846 164.994 22.7242 165.622 22.2613 166.085C21.7983 166.548 21.1706 166.809 20.5159 166.809ZM20.5159 162.25C20.1026 162.25 19.6986 162.373 19.355 162.602C19.0114 162.832 18.7435 163.158 18.5854 163.54C18.4272 163.922 18.3858 164.342 18.4665 164.747C18.5471 165.153 18.7461 165.525 19.0383 165.817C19.3306 166.11 19.7029 166.309 20.1082 166.389C20.5136 166.47 20.9337 166.428 21.3155 166.27C21.6974 166.112 22.0237 165.844 22.2533 165.501C22.4829 165.157 22.6055 164.753 22.6055 164.34C22.6048 163.786 22.3845 163.255 21.9927 162.863C21.601 162.471 21.0699 162.251 20.5159 162.25Z" fill="#3F3D56"/>
<path d="M98.577 118.409C99.836 118.409 100.857 117.388 100.857 116.129C100.857 114.87 99.836 113.85 98.577 113.85C97.3181 113.85 96.2975 114.87 96.2975 116.129C96.2975 117.388 97.3181 118.409 98.577 118.409Z" fill="#D0CDE1"/>
<path d="M90.147 115.891C92.2453 115.891 93.9462 114.19 93.9462 112.092C93.9462 109.994 92.2453 108.293 90.147 108.293C88.0488 108.293 86.3478 109.994 86.3478 112.092C86.3478 114.19 88.0488 115.891 90.147 115.891Z" fill="#6C4657"/>
<path d="M91.6762 116.922C90.6511 116.922 89.6652 116.528 88.9215 115.823C88.1779 115.117 87.7333 114.153 87.6794 113.13C87.6255 112.106 87.9664 111.101 88.6318 110.321C89.2972 109.541 90.2365 109.047 91.2559 108.939C92.2753 108.831 93.2971 109.119 94.1107 109.743C94.9244 110.366 95.4677 111.278 95.6289 112.29C95.79 113.303 95.5565 114.338 94.9767 115.183C94.3968 116.029 93.5148 116.619 92.5123 116.833C92.2375 116.892 91.9572 116.922 91.6762 116.922ZM91.6915 109.321C91.4373 109.321 91.1837 109.348 90.935 109.401C89.9986 109.599 89.1795 110.162 88.6579 110.964C88.1363 111.767 87.9549 112.744 88.1536 113.68C88.3523 114.617 88.9148 115.436 89.7175 115.958C90.5201 116.479 91.4971 116.661 92.4335 116.462C93.3052 116.276 94.0776 115.775 94.6018 115.054C95.126 114.334 95.3651 113.444 95.273 112.558C95.1809 111.671 94.7641 110.85 94.1029 110.253C93.4417 109.655 92.5828 109.323 91.6915 109.321Z" fill="#3F3D56"/>
<path d="M97.5529 117.456C96.9184 117.456 96.3081 117.213 95.8478 116.776C95.3875 116.339 95.1123 115.743 95.079 115.109C95.0457 114.475 95.2567 113.853 95.6686 113.371C96.0806 112.888 96.662 112.582 97.293 112.515C97.924 112.449 98.5565 112.627 99.0601 113.013C99.5637 113.399 99.9 113.963 99.9997 114.59C100.099 115.216 99.9549 115.857 99.5959 116.381C99.237 116.904 98.691 117.269 98.0704 117.402C97.9003 117.438 97.7268 117.456 97.5529 117.456ZM97.5582 112.896C97.1263 112.896 96.7049 113.03 96.352 113.279C95.9991 113.528 95.7322 113.881 95.5878 114.288C95.4435 114.695 95.4289 115.137 95.546 115.553C95.6631 115.968 95.9061 116.338 96.2417 116.61C96.5773 116.882 96.989 117.043 97.42 117.071C97.8511 117.1 98.2803 116.994 98.6487 116.768C99.0171 116.543 99.3066 116.209 99.4773 115.812C99.6479 115.415 99.6915 114.975 99.6018 114.552C99.5026 114.084 99.2455 113.664 98.8734 113.362C98.5014 113.061 98.0371 112.896 97.5583 112.896H97.5582Z" fill="#3F3D56"/>
<path d="M154.906 78.4198C156.165 78.4198 157.186 77.3992 157.186 76.1403C157.186 74.8813 156.165 73.8607 154.906 73.8607C153.647 73.8607 152.627 74.8813 152.627 76.1403C152.627 77.3992 153.647 78.4198 154.906 78.4198Z" fill="#D0CDE1"/>
<path d="M161.407 73.2239C163.505 73.2239 165.206 71.5229 165.206 69.4246C165.206 67.3264 163.505 65.6254 161.407 65.6254C159.309 65.6254 157.608 67.3264 157.608 69.4246C157.608 71.5229 159.309 73.2239 161.407 73.2239Z" fill="#6C4657"/>
<path d="M160.127 74.6062C159.565 74.6063 159.009 74.4877 158.496 74.258C157.983 74.0284 157.524 73.693 157.15 73.2737C156.775 72.8544 156.493 72.3608 156.323 71.8251C156.153 71.2894 156.097 70.7237 156.161 70.1651C156.248 69.4005 156.554 68.6774 157.043 68.0831C157.532 67.4887 158.182 67.0484 158.916 66.8153C159.649 66.5822 160.435 66.5662 161.177 66.7693C161.919 66.9724 162.587 67.3858 163.099 67.9598C163.612 68.5338 163.948 69.2438 164.066 70.0043C164.184 70.7647 164.08 71.5431 163.766 72.2457C163.452 72.9482 162.941 73.5448 162.295 73.9637C161.65 74.3825 160.897 74.6057 160.127 74.6062ZM156.538 70.2082C156.443 71.0378 156.64 71.8746 157.093 72.576C157.546 73.2773 158.228 73.7998 159.024 74.0544C159.819 74.309 160.678 74.2799 161.454 73.9722C162.23 73.6645 162.876 73.0972 163.281 72.3669C163.686 71.6365 163.825 70.7884 163.674 69.967C163.524 69.1456 163.094 68.4018 162.456 67.8622C161.819 67.3227 161.014 67.0208 160.179 67.008C159.344 66.9952 158.531 67.2723 157.877 67.7921C157.129 68.3883 156.647 69.2572 156.538 70.2082Z" fill="#3F3D56"/>
<path d="M156.318 78.0057C156.223 78.0058 156.128 78.0004 156.034 77.9896C155.383 77.9147 154.789 77.5849 154.382 77.0725C153.974 76.5601 153.786 75.9069 153.86 75.2563C153.914 74.7832 154.104 74.3358 154.406 73.968C154.709 73.6002 155.111 73.3278 155.565 73.1834C156.019 73.0391 156.504 73.0291 156.964 73.1546C157.423 73.28 157.836 73.5357 158.154 73.8907C158.471 74.2457 158.679 74.6849 158.753 75.1553C158.826 75.6258 158.762 76.1075 158.568 76.5424C158.374 76.9773 158.059 77.3469 157.659 77.6065C157.26 77.8661 156.794 78.0048 156.318 78.0057V78.0057ZM154.237 75.2994C154.19 75.71 154.266 76.1254 154.456 76.4928C154.645 76.8603 154.939 77.1634 155.3 77.3638C155.662 77.5642 156.074 77.653 156.486 77.6188C156.898 77.5846 157.291 77.429 157.614 77.1717C157.938 76.9144 158.178 76.5669 158.304 76.1733C158.43 75.7796 158.436 75.3575 158.322 74.9601C158.208 74.5628 157.979 74.2082 157.664 73.9412C157.348 73.6741 156.961 73.5066 156.55 73.4598C155.999 73.3978 155.447 73.5566 155.013 73.9015C154.58 74.2463 154.301 74.749 154.237 75.2994Z" fill="#3F3D56"/>
<path d="M154.819 91.5845H116.067V135.656H154.819V91.5845Z" fill="#D0CDE1"/>
<path d="M193.571 91.5845H153.869V135.656H193.571V91.5845Z" fill="#3F3D56"/>
<path d="M154.819 97.6633H116.067V104.882H154.819V97.6633Z" fill="#D65A5A"/>
<path d="M193.571 97.6633H154.819V104.882H193.571V97.6633Z" fill="#D0CDE1"/>
<path d="M154.819 121.788H116.067V129.007H154.819V121.788Z" fill="#3F3D56"/>
<path d="M193.571 121.788H154.819V129.007H193.571V121.788Z" fill="#D65A5A"/>
<path d="M153.869 93.864V133.376C159.108 133.376 164.133 131.295 167.838 127.59C171.543 123.885 173.625 118.86 173.625 113.62C173.625 108.38 171.543 103.355 167.838 99.6504C164.133 95.9455 159.108 93.864 153.869 93.864Z" fill="#D0CDE1"/>
<path d="M134.113 113.62C134.113 116.214 134.624 118.783 135.617 121.18C136.609 123.577 138.065 125.755 139.899 127.59C143.604 131.295 148.629 133.376 153.869 133.376V93.864C148.629 93.864 143.604 95.9455 139.899 99.6504C136.194 103.355 134.113 108.38 134.113 113.62Z" fill="#D65A5A"/>
<path d="M143.611 113.62C143.611 116.341 144.692 118.95 146.615 120.874C148.539 122.797 151.148 123.878 153.869 123.878V103.362C151.148 103.362 148.539 104.443 146.615 106.367C144.692 108.29 143.611 110.9 143.611 113.62Z" fill="#3F3D56"/>
<path d="M164.127 113.62C164.127 116.341 163.046 118.95 161.122 120.874C159.198 122.797 156.589 123.878 153.869 123.878V103.362C156.589 103.362 159.198 104.443 161.122 106.367C163.046 108.29 164.127 110.9 164.127 113.62Z" fill="#D65A5A"/>
<path d="M199.459 143.444H110.178V83.7962H199.459V143.444ZM110.558 143.064H199.08V84.1761H110.558V143.064Z" fill="#3F3D56"/>
<path d="M115.022 190.744H4.65405V191.124H115.022V190.744Z" fill="#3F3D56"/>
</g>
</svg>
