<svg width="299" height="317" viewBox="0 0 299 317" fill="none" xmlns="http://www.w3.org/2000/svg">
<path fill-rule="evenodd" clip-rule="evenodd" d="M121.468 12.006C147.538 16.7085 169.72 28.758 194.056 39.2145C227.312 53.5033 278.388 50.0666 289.877 84.3661C301.336 118.573 302.726 159.119 289.877 192.829C278.062 223.831 239.997 247.09 218.29 272.191C194.616 299.565 157.538 312.06 121.468 315.221C83.0757 318.586 35.6489 320.3 11.4665 290.316C-13.1564 259.786 10.759 214.761 8.85954 175.598C7.60895 149.813 -0.537772 126.001 2.25227 100.337C5.74375 68.2204 0.992239 28.3163 26.963 9.07381C52.9138 -10.1539 89.6746 6.27104 121.468 12.006Z" fill="#D65A5A"/>
<path d="M149.995 234.463C108.042 234.463 74.0322 200.453 74.0322 158.5C74.0322 116.547 108.042 82.5369 149.995 82.5369C191.949 82.5369 225.958 116.547 225.958 158.5C225.958 200.453 191.949 234.463 149.995 234.463Z" fill="#F5F5F5"/>
<path d="M149.785 234.691C134.945 234.712 120.428 230.367 108.041 222.195C110.836 206.905 121.495 205.946 121.495 205.946H180.219C180.219 205.946 190.277 206.775 193.413 220.847C180.65 229.858 165.408 234.695 149.785 234.691Z" fill="#6C63FF"/>
<path d="M160.184 186.497H141.221C140.626 186.497 140.056 186.733 139.636 187.153C139.215 187.574 138.979 188.144 138.979 188.739V205.297C138.979 206.839 139.283 208.367 139.873 209.792C140.464 211.218 141.329 212.513 142.42 213.604C143.511 214.694 144.806 215.56 146.231 216.15C147.656 216.741 149.184 217.044 150.727 217.044C152.27 217.044 153.797 216.741 155.222 216.15C156.648 215.56 157.943 214.694 159.034 213.604C160.125 212.513 160.99 211.218 161.58 209.792C162.171 208.367 162.475 206.839 162.475 205.297V188.739C162.475 188.144 162.238 187.574 161.818 187.153C161.397 186.733 160.827 186.497 160.232 186.497H160.184Z" fill="#BE7C5E"/>
<path d="M150.581 197.806C131.986 197.806 116.913 182.732 116.913 164.138C116.913 145.544 131.986 130.471 150.581 130.471C169.175 130.471 184.248 145.544 184.248 164.138C184.248 182.732 169.175 197.806 150.581 197.806Z" fill="#BE7C5E"/>
<path d="M170.989 150.246C170.78 148.737 169.994 147.368 168.796 146.427C167.693 145.945 166.474 145.792 165.286 145.989C155.975 146.492 146.746 144.364 137.663 142.154C132.496 140.887 126.939 139.343 123.624 135.183C120.309 131.024 124.648 117.911 129.733 116.351C133.097 115.327 136.964 117.245 140.133 115.733C141.466 114.91 142.698 113.934 143.805 112.825C146.447 111.006 149.451 109.781 152.612 109.234C156.235 108.34 160.167 107.463 163.612 108.909C166.277 110.03 168.243 112.37 170.778 113.784C175.653 116.432 181.518 115.214 187.027 115.197C188.895 115.197 191.121 115.571 191.901 117.293C192.179 118.529 192.179 119.811 191.901 121.047C191.739 125.044 195.054 128.196 197.832 131.072C200.611 133.948 203.243 138.108 201.472 141.715C200.806 143.096 199.571 144.12 198.888 145.485C197.686 147.841 198.287 150.685 197.865 153.301C197.427 155.277 196.688 157.173 195.671 158.923C193.608 162.936 183.257 184.563 178.48 179.071C176.173 176.406 175.783 168.656 174.873 165.179C173.616 160.196 172.322 155.218 170.989 150.246Z" fill="#333333"/>
</svg>
